{"title":"The Back-Up Plan DVDSCR XViD AC3 - IMAGiNE","uid":5505488,"size":1502516369,"categoryP":"video","categoryS":"movies","magnet":"?xt=urn:btih:ea803bdfb47a5e84d2319f4c0996b2ec6258710f&amp;dn=The+Back-Up+Plan+DVDSCR+XViD+AC3+-+IMAGiNE&amp;tr=udp%3A%2F%2Ftracker.openbittorrent.com%3A80&amp;tr=udp%3A%2F%2Fopen.demonii.com%3A1337&amp;tr=udp%3A%2F%2Ftracker.coppersurfer.tk%3A6969&amp;tr=udp%3A%2F%2Fexodus.desync.com%3A6969","seeders":1,"leechers":0,"uploader":"TvTeam","files":6,"time":1271786396,"description":". \n  &lt;a href=&quot;\nhttp://www.torrentday.com&quot; rel=&quot;nofollow&quot; target=&quot;_NEW&quot;&gt;\nhttp://www.torrentday.com&lt;/a&gt;   -    Your Key To The Scene.\n\nNow TvTeam with [No-RAR] Releases.\n\n(((((((((((((= Enjoy No RAR releases =))))))))))))))))))))\n\n...................................NFO:....................................\n\n.      *********** ****    ****      ***      ******** *********** ****    *** **********\n           *+*     +*+*+* *+*+*+   *+* *+*   *+*    *+*    *+*     *+*+*   *+* *+*        \n           +*+     +*+ +*+*+ +*+  +*+   +*+  +*+           +*+     *+*+*+  +*+ +*+        \n           +$+     +$+  +*+  +$+ +$++*++$++* *$*           +$+     +$+ +*+ +$+ +$++*++$  \n           +$+     +$+       +$+ +$+     +$+ +$+   +$+$    +$+     +$+  +$+$+$ +$+        \n           $+$     $+$       $+$ $+$     $+$ $+$    $+$    $+$     $+$   $+$+$ $+$        \n       $$$$$$$$$$$ $$$       $$$ $$$     $$$  $$$$$$$$ $$$$$$$$$$$ $$$    $$$$ $$$$$$$$$$     \n                                                \n\n\n\n                           Another Fine Release Brought to you from - IMAGiNE                   \n                                               \n********************************************************************************************************************                                \n                        The Back-Up Plan DVDSCR XViD AC3 - IMAGiNE\n********************************************************************************************************************\n\nRipper ...........: IMAGiNE                                        IMDB Rating.......:7.0/10                             \nVideo Codec.......: XViD                                        Release Date......:20/04/10\nAudio Codec.......:AC3                                           Theatre Date......:23/04/10\nAudio Bitrate.....:256                                              Runtime.......:1h 44mn\nSubtitles.........:NIL                                                 Language..........:ENGLISH\nResolution...... 704 x 304                                     IMDb URL..........:http://www.imdb.com/title/tt1212436/\n\n\n[color=yellow]DETAILS:[/color]\n\nVideo\nID                               : 0\nFormat                           : MPEG-4 Visual\nFormat profile                   : Advanced Simple@L5\nFormat settings, BVOP            : Yes\nFormat settings, QPel            : No\nFormat settings, GMC             : No warppoints\nFormat settings, Matrix          : Default (MPEG)\nMuxing mode                      : Packed bitstream\nCodec ID                         : XVID\nCodec ID/Hint                    : XviD\nDuration                         : 1h 44mn\nBit rate                         : 1 619 Kbps\nWidth                            : 704 pixels\nHeight                           : 304 pixels\nDisplay aspect ratio             : 2.35\nFrame rate                       : 23.976 fps\nResolution                       : 24 bits\nColorimetry                      : 4:2:0\nScan type                        : Progressive\nBits/(Pixel*Frame)               : 0.316\nStream size                      : 1.18 GiB (86%)\nWriting library                  : XviD 1.2.1 (UTC 2008-12-04)\n\nAudio\nID                               : 1\nFormat                           : AC-3\nFormat/Info                      : Audio Coding 3\nCodec ID                         : 2000\nDuration                         : 1h 44mn\nBit rate mode                    : Constant\nBit rate                         : 256 Kbps\nChannel(s)                       : 2 channels\nChannel positions                : L R\nSampling rate                    : 48.0 KHz\nStream size                      : 191 MiB (14%)\nAlignment                        : Aligned on interleaves\nInterleave, duration             : 42 ms (1.00 video frame)\nInterleave, preload duration     : 512 ms\n\n\n\n[color=yellow]NOTES:[/color]\n\nIMAGiNE bringing you another release.....The Back-Up Plan\nOnce more thanks to polo2268 for the source :)\nAnyway we decided to to a rip in the end and we know there's a few out already so take ya pick.\nWell we used the same script as we did for our dvdr release but ad to slightly change it due to crop and resize\netc....\nThe audio yet again is untouched.\n\nEnjoy :)\n\n\n[color=yellow]SCREENS:[/color]\n\n\n\n[color=yellow]GREETS:[/color]\n\nFLAWL3SS,ViSiON,FUSiON,Rx,SecretMyth,BirdFlu,ELEKTRI4KA\nAnd to all the other p2p grps past and present \n\nSpecial thanks to Python-Lair for the server :)\nAnd special thanks to supreme-speeds.com for the ripbox :)\n\n[COLOR=RED]Looking for these,syncers,cammers,silver supplier.....Have anything to offer????......\nContact us &lt;a class=&quot;__cf_email__&quot; href=&quot;/cdn-cgi/l/email-protection&quot; data-cfemail=&quot;d4bdb9b5b3bdbab1b3a6bba1a494bca1a7bcb9b5bdb8fab7bbb9&quot;&gt;[email&amp;#160;protected]&lt;/a&gt;&lt;script cf-hash='f9e31' type=&quot;text/javascript&quot;&gt;\n/* &lt;![CDATA[ */!function(){try{var t=&quot;currentScript&quot;in document?document.currentScript:function(){for(var t=document.getElementsByTagName(&quot;script&quot;),e=t.length;e--;)if(t[e].getAttribute(&quot;cf-hash&quot;))return t[e]}();if(t&amp;&amp;t.previousSibling){var e,r,n,i,c=t.previousSibling,a=c.getAttribute(&quot;data-cfemail&quot;);if(a){for(e=&quot;&quot;,r=parseInt(a.substr(0,2),16),n=2;a.length-n;n+=2)i=parseInt(a.substr(n,2),16)^r,e+=String.fromCharCode(i);e=document.createTextNode(e),c.parentNode.replaceChild(e,c)}}}catch(u){}}();/* ]]&gt; */&lt;/script&gt;[/COLOR]","torrent":{"xt":"urn:btih:ea803bdfb47a5e84d2319f4c0996b2ec6258710f","amp;dn":"The+Back-Up+Plan+DVDSCR+XViD+AC3+-+IMAGiNE","amp;tr":["udp%3A%2F%2Ftracker.openbittorrent.com%3A80","udp%3A%2F%2Fopen.demonii.com%3A1337","udp%3A%2F%2Ftracker.coppersurfer.tk%3A6969","udp%3A%2F%2Fexodus.desync.com%3A6969"],"infoHash":"ea803bdfb47a5e84d2319f4c0996b2ec6258710f","infoHashBuffer":{"type":"Buffer","data":[234,128,59,223,180,122,94,132,210,49,159,76,9,150,178,236,98,88,113,15]},"announce":[],"urlList":[]}}